<svg width="512" height="512" viewBox="0 0 512 512" fill="none" xmlns="http://www.w3.org/2000/svg">
<style>@media (prefers-color-scheme: dark) { .path { fill: #fff;} }</style>
<path fill-rule="evenodd" clip-rule="evenodd" d="M305.638 94.2893C324.263 116.391 335.111 139.914 338.794 162.649C342.411 184.973 342.313 205.477 332.88 217.948C323.447 230.42 315.279 237.45 294.424 246.585C273.57 255.72 252.376 258.679 229.874 260.827C221.117 261.663 211.778 260.827 209.72 270.301C207.663 279.775 211.778 288.455 217.449 304.394C223.12 320.334 227.226 326.518 231.454 336.745C235.683 346.971 237.274 352.083 238.04 360.18C238.731 367.49 238.393 382.5 229.874 387.663C225.825 390.117 220.184 390.145 215.64 389.739C202.242 388.54 193.44 392.062 197.875 412.473C201.706 430.102 207.484 440.005 215.64 456.626L215.64 465C203.643 449.084 186.533 424.133 182.669 410.491C178.804 396.848 177.142 385.661 177.021 381.261C176.456 360.796 187.351 360.964 207.402 365.485C212.039 366.531 218.222 368.229 222.087 367.759C225.951 367.289 228.608 363.757 228.27 360.18C227.683 353.971 222.931 343.154 217.449 333.301C202.841 307.045 194.938 291.52 194.938 260.827C194.938 251.846 198.164 243.913 201.909 239.666C208.648 232.025 218.333 229.196 228.27 228.247C248.012 226.362 268.085 226.86 287.473 222.17C301.468 218.784 312.661 211.946 320.284 203.703C327.54 195.855 330.591 187.868 327.638 169.642C324.752 151.829 307.794 125.544 291.648 115.658C275.501 105.771 258.322 97.421 238.278 96.6164C218.235 95.8118 208.155 101.902 201.909 109.594C195.664 117.286 189.358 140.682 193.22 161.236C197.082 181.79 192.448 180.268 185.496 162.649C178.545 145.03 179.125 99.5324 190.924 79.8006C203.424 58.8966 224.534 51.9253 246.536 56.2015C268.36 60.4431 287.013 72.188 305.638 94.2893Z" fill="#09090B"/>
</svg>
