<?xml version="1.0" standalone="no"?>
<!DOCTYPE svg PUBLIC "-//W3C//DTD SVG 20010904//EN"
 "http://www.w3.org/TR/2001/REC-SVG-20010904/DTD/svg10.dtd">
<svg version="1.0" xmlns="http://www.w3.org/2000/svg"
 width="512.000000pt" height="512.000000pt" viewBox="0 0 512.000000 512.000000"
 preserveAspectRatio="xMidYMid meet">
<metadata>
Created by potrace 1.14, written by Peter Selinger 2001-2017
</metadata>
<g transform="translate(0.000000,512.000000) scale(0.100000,-0.100000)"
fill="#000000" stroke="none">
<path d="M2213 4554 c-76 -19 -141 -55 -203 -111 -142 -128 -201 -323 -196
-648 3 -183 19 -266 70 -365 54 -107 75 -80 50 63 -25 141 -4 344 48 467 53
124 182 193 363 193 187 -1 369 -61 565 -188 142 -91 286 -284 344 -461 48
-147 41 -295 -17 -379 -89 -127 -279 -225 -487 -250 -30 -3 -66 -8 -80 -10
-14 -2 -72 -7 -130 -10 -326 -19 -378 -28 -459 -80 -50 -32 -76 -62 -103 -120
-20 -43 -23 -67 -23 -170 0 -249 31 -345 232 -725 121 -228 122 -324 3 -315
-44 4 -113 16 -122 21 -15 9 -96 19 -159 19 -53 0 -72 -4 -89 -20 -56 -50 -63
-136 -26 -316 38 -180 81 -272 234 -499 102 -150 119 -173 125 -163 12 23 -5
88 -46 169 -119 236 -166 437 -120 515 24 41 63 53 172 52 133 -1 168 18 202
108 20 52 26 158 14 234 -9 54 -39 141 -76 222 -85 186 -96 211 -152 365 -63
171 -70 256 -27 311 23 29 75 42 207 52 46 3 93 8 105 10 12 3 42 7 67 10 25
3 57 7 71 10 14 3 39 8 55 11 164 29 399 122 523 206 71 48 179 164 208 225
69 139 70 385 3 633 -101 381 -433 777 -749 897 -128 49 -294 64 -397 37z"/>
</g>
</svg>
